<svg width="148" height="27" viewBox="0 0 148 27" fill="none" xmlns="http://www.w3.org/2000/svg">
<path d="M21.8906 7.26562C21.8906 7.60938 21.8542 7.78125 21.7812 7.78125C21.7812 7.78125 19.8958 7.76562 16.125 7.73438C16.1042 8.74479 16.0938 10.3229 16.0938 12.4688C16.0938 14.6146 16.099 16.1042 16.1094 16.9375L16.1719 25.2188C16.1198 25.3646 16.0156 25.4427 15.8594 25.4531L12.5625 25.4062L12.5469 25.4219L11.5156 25.4062H8.65625C7.88542 25.4062 7.30729 25.4115 6.92188 25.4219L6.65625 25.1875C6.64583 25.1771 6.57812 25.0938 6.45312 24.9375C6.45312 24.0208 6.48958 21.9844 6.5625 18.8281L6.73438 10.5156L6.70312 10.125C6.63021 9.09375 6.55729 8.48438 6.48438 8.29688C6.42188 8.09896 6.29167 7.99479 6.09375 7.98438C5.89583 7.96354 5.75 7.95312 5.65625 7.95312L5.03125 7.98438L1.15625 7.92188C1.02083 7.65104 0.953125 7.04167 0.953125 6.09375L0.984375 4.71875V4.29688C0.973958 2.63021 0.958333 1.73958 0.9375 1.625C0.958333 1.625 1 1.63542 1.0625 1.65625L20.9531 1.48438C21.3594 1.48438 21.6146 1.51562 21.7188 1.57812C21.8229 1.63021 21.875 1.73438 21.875 1.89062V6.01562L21.8906 7.26562ZM26.6719 5.84375C27.1406 5.70833 27.6406 5.64062 28.1719 5.64062C28.7031 5.64062 29.2083 5.66146 29.6875 5.70312L30.3438 5.76562C31.375 5.85938 32.1667 5.97917 32.7188 6.125V6.10938L33.0469 6.25C35.2344 6.92708 36.9375 7.95833 38.1562 9.34375V9.32812C38.4375 9.66146 38.7812 10.1667 39.1875 10.8438C39.6042 11.5104 39.8125 11.974 39.8125 12.2344L39.9375 12.6562L40.0156 13.1094C40.2135 13.8073 40.3125 14.3906 40.3125 14.8594C40.3125 15.3281 40.3177 15.6875 40.3281 15.9375H27.4531V16.4531C27.5156 16.6927 27.5469 16.9427 27.5469 17.2031C27.5469 17.4635 27.5469 17.6719 27.5469 17.8281C27.5573 17.974 27.5729 18.1198 27.5938 18.2656C27.6146 18.401 27.625 18.5156 27.625 18.6094C27.6354 18.6927 27.6615 18.7969 27.7031 18.9219C27.7448 19.0365 27.7656 19.1146 27.7656 19.1562C27.776 19.1979 27.8073 19.2812 27.8594 19.4062C27.9219 19.5312 27.9688 19.651 28 19.7656C28.0417 19.8698 28.1146 19.974 28.2188 20.0781V20.0625L28.3906 20.3906C28.5885 20.6094 28.8594 20.7656 29.2031 20.8594C29.776 20.7344 30.1615 20.4375 30.3594 19.9688C30.5677 19.5 30.7396 18.9167 30.875 18.2188C31.25 18.1146 31.7812 18.0625 32.4688 18.0625L34.4688 18.1094H40.2344C40.1094 19.3802 39.7344 20.5469 39.1094 21.6094H39.125C38.5833 22.4635 37.7396 23.1979 36.5938 23.8125C33.3542 24.9479 31.276 25.5156 30.3594 25.5156C30.1927 25.5156 30.0573 25.5052 29.9531 25.4844H29.5938L29.4531 25.5H29.3125C29.2292 25.5 29.125 25.4896 29 25.4688C28.8958 25.5312 28.7708 25.5625 28.625 25.5625L27.2656 25.4062C27.1927 25.4375 27.0417 25.4531 26.8125 25.4531C26.5938 25.4531 26.0104 25.3125 25.0625 25.0312V25.0469L24.6875 24.9375L24.3125 24.8125C22.75 24.3542 21.4115 23.5521 20.2969 22.4062C19.1823 21.25 18.4688 19.9062 18.1562 18.375C18.125 18.1875 18.0677 17.9062 17.9844 17.5312C17.901 17.1458 17.8594 16.8854 17.8594 16.75V16C17.8594 15.8229 17.8646 15.6875 17.875 15.5938V15.3594C17.875 13.151 18.5312 11.2448 19.8438 9.64062C21.1562 8.02604 22.9167 6.89062 25.125 6.23438L25.5 6.125C26.0521 6.03125 26.4479 5.93229 26.6875 5.82812L26.6719 5.84375ZM31.3438 13.875L31.6719 13.6719C31.4948 12.5469 31.3281 11.8281 31.1719 11.5156C31.0156 11.1927 30.8646 10.9167 30.7188 10.6875C30.4479 10.25 30.0885 10.0312 29.6406 10.0312C29.2031 10.0312 28.8281 10.25 28.5156 10.6875C27.9635 11.4583 27.6146 12.5417 27.4688 13.9375C28.1354 13.8958 28.75 13.875 29.3125 13.875H31.3438ZM46.0312 6.3125L50.2188 6.29688C50.2708 6.51562 50.3646 6.85938 50.5 7.32812C50.6354 7.79688 50.7656 8.26562 50.8906 8.73438L51.1875 9.90625C51.6042 8.85417 51.8594 8.27083 51.9531 8.15625L52.2031 7.84375C53.2552 6.36458 54.8698 5.625 57.0469 5.625C58.0781 5.625 59.0573 5.9375 59.9844 6.5625C60.9219 7.17708 61.651 7.98438 62.1719 8.98438C62.6927 9.97396 62.9531 11.0208 62.9531 12.125C62.9531 12.25 62.9375 12.349 62.9062 12.4219V22.0312L62.9219 25.0156H53.7812L53.75 17.2031L53.8125 15.6094C53.8125 14.0156 53.3906 13.2188 52.5469 13.2188C51.6406 13.2188 51.1875 13.974 51.1875 15.4844C51.1875 15.8177 51.1927 16.0469 51.2031 16.1719V16.4062L51.2188 16.6719V25L46.5625 25.0156H41.8906L41.875 15.6406V6.29688L46.0312 6.3125ZM87.7969 19.2812L88.8125 19.25C89.5208 19.2812 89.875 19.5104 89.875 19.9375C89.875 19.9375 89.8698 19.9948 89.8594 20.1094V20.2656C89.849 20.3385 89.8438 20.4635 89.8438 20.6406V21.2188L89.8594 21.4219L89.875 22.9375L89.8594 23.3438V24.1094L89.8438 24.6562L89.8594 24.9219V25.3594C89.8177 25.5052 89.6979 25.625 89.5 25.7188C88.1667 25.5521 86.8281 25.4688 85.4844 25.4688C84.1406 25.4688 82.526 25.5729 80.6406 25.7812C78.7552 25.9896 77.3542 26.0938 76.4375 26.0938C74.2396 26.0938 72.3802 25.6667 70.8594 24.8125C69.349 23.9479 68.0677 22.7031 67.0156 21.0781C66.8802 21.0781 66.8125 21.0885 66.8125 21.1094L66.5938 20.8906C65.3125 18.8906 64.6719 16.3698 64.6719 13.3281C64.6719 11.5573 64.9115 9.95312 65.3906 8.51562C66.2656 5.89062 67.875 3.90625 70.2188 2.5625C72.3021 1.35417 74.724 0.75 77.4844 0.75C79.2969 0.75 80.9427 1.05729 82.4219 1.67188C83.9115 2.28646 85.1458 3.13542 86.125 4.21875C88.1562 6.46875 89.1719 9.29688 89.1719 12.7031C89.1719 13.7865 88.974 14.9167 88.5781 16.0938C88.1823 17.2708 87.6354 18.3333 86.9375 19.2812H87.7969ZM76.6562 20.5L76.8438 20.4844H77.125L77.4375 20.5156C78.0938 20.5156 78.6198 20.2812 79.0156 19.8125C79.4115 19.3438 79.6615 18.8854 79.7656 18.4375C80.0469 17.3333 80.2083 16.0625 80.25 14.625V14.3438L80.2969 12.3125C80.2969 10.4688 80.1094 9.11458 79.7344 8.25C79.3594 7.38542 78.8542 6.8125 78.2188 6.53125C77.8438 6.35417 77.349 6.26562 76.7344 6.26562C76.1302 6.26562 75.5781 6.50521 75.0781 6.98438C74.5781 7.45312 74.1667 8.23958 73.8438 9.34375C73.5208 10.4479 73.3594 11.849 73.3594 13.5469C73.3594 15.2448 73.4271 16.3958 73.5625 17C73.8333 18.25 74.2031 19.1458 74.6719 19.6875C75.151 20.2292 75.8125 20.5 76.6562 20.5ZM100.359 7.8125L100.328 17.7344C100.328 18.7969 100.708 19.3281 101.469 19.3281C102.104 19.3281 102.422 18.7656 102.422 17.6406V6.32812L107.562 6.3125H112.656L112.672 24.9844H103.922L103.188 22.4531C101.854 24.526 100.026 25.5625 97.7031 25.5625C95.7031 25.5625 94.0208 24.9896 92.6562 23.8438L92.6719 23.7344C92.4948 23.6823 92.276 23.4948 92.0156 23.1719C91.7552 22.8385 91.5573 22.5521 91.4219 22.3125C90.7448 21.0833 90.4062 19.276 90.4062 16.8906L90.4219 16.3906V6.32812H95.3906L100.359 6.3125V7.8125ZM124.219 0.34375L124.234 4.625H114.609C114.609 3.625 114.599 2.91146 114.578 2.48438L114.562 0.375L124.219 0.34375ZM114.406 0.375L114.562 0.21875V0.375H114.406ZM124.281 20.0469L124.297 20.1875L124.312 22.5312C124.312 22.9583 124.292 23.4688 124.25 24.0625C124.208 24.6562 124.172 24.9635 124.141 24.9844L123.859 25.0156H118.172L117.516 25.0781C115.891 25.0781 114.901 25.0573 114.547 25.0156V24.9062L114.531 24.6094V23.9062C114.531 21.8542 114.562 20.151 114.625 18.7969L114.797 6.76562V6.29688L116.016 6.28125L116.281 6.29688H116.734L117.125 6.3125L117.328 6.29688H118.453L118.688 6.28125L124.016 6.34375C124.057 6.33333 124.089 6.32812 124.109 6.32812C124.13 6.32812 124.141 6.35938 124.141 6.42188L124.156 7.90625C124.167 8.89583 124.188 10.224 124.219 11.8906C124.25 13.5469 124.266 14.7188 124.266 15.4062L124.25 17.3594V18.1875L124.297 19.0156V19.5C124.297 19.5104 124.292 19.5312 124.281 19.5625V20.0469ZM132.656 12.2031L129.094 12.1719H127.812V6.3125H147.391C147.38 6.34375 147.359 6.35938 147.328 6.35938L145.562 9.20312C143.021 13.5885 141.12 16.9271 139.859 19.2188H142.812L146.234 19.2344V25.0156H127.797C127.797 25.0156 127.344 25.0312 126.438 25.0625C126.135 25.0625 125.891 25.0469 125.703 25.0156L125.719 25.0312C125.688 25.0312 125.646 25.0208 125.594 25C125.542 24.9896 125.505 24.9844 125.484 24.9844C125.599 24.7344 126.323 23.5885 127.656 21.5469C128.99 19.4948 129.896 18.0781 130.375 17.2969L133.531 12.2031H132.656Z" fill="white"/>
</svg>
