<svg width="25" height="24" viewBox="0 0 25 24" fill="none" xmlns="http://www.w3.org/2000/svg">
<path fill-rule="evenodd" clip-rule="evenodd" d="M10.9313 3.75C7.0502 3.75 3.90393 6.77208 3.90393 10.5C3.90393 14.2279 7.0502 17.25 10.9313 17.25C12.8721 17.25 14.6279 16.4953 15.9004 15.273C17.173 14.0506 17.9587 12.3642 17.9587 10.5C17.9587 6.77208 14.8124 3.75 10.9313 3.75ZM2.34229 10.5C2.34229 5.94365 6.18773 2.25 10.9313 2.25C15.6749 2.25 19.5204 5.94365 19.5204 10.5C19.5204 12.5078 18.7728 14.3491 17.5318 15.7793L22.415 20.4697C22.7199 20.7626 22.7199 21.2374 22.415 21.5303C22.11 21.8232 21.6156 21.8232 21.3107 21.5303L16.4275 16.8399C14.9386 18.032 13.0217 18.75 10.9313 18.75C6.18773 18.75 2.34229 15.0563 2.34229 10.5Z" fill="white"/>
</svg>
