<svg width="116" height="124" viewBox="0 0 116 124" fill="none" xmlns="http://www.w3.org/2000/svg">
<path d="M59.2106 94.5635C55.617 96.6938 52.0848 98.9963 48.6244 101.473L44.9396 104.11C32.7292 112.848 15.7467 110.034 7.00808 97.8234C-1.7305 85.613 1.08401 68.6305 13.2944 59.8919L16.9793 57.2548C20.4396 54.7783 23.7585 52.1778 26.9341 49.4635M59.2106 94.5635C63.8344 98.3994 68.7287 101.808 73.8338 104.779C76.9848 106.613 78.3787 110.511 76.872 113.831L74.9798 118.001C73.3901 121.504 69.2027 123.006 65.858 121.106C58.0138 116.65 50.584 111.318 43.7254 105.134M59.2106 94.5635C52.1657 88.7191 45.7488 81.8828 40.1715 74.0895C34.5942 66.2963 30.1934 58.0171 26.9341 49.4635M59.2106 94.5635C75.6923 84.7936 93.4664 78.6468 111.528 75.9564M26.9341 49.4635C41.4986 37.0147 53.0508 22.1739 61.424 5.94559M61.424 5.94559C59.5126 4.4967 57.5704 3.09975 55.5996 1.75511M61.424 5.94559C70.1113 12.5307 78.1628 20.1888 85.3742 28.886M111.528 75.9564C112.283 78.233 112.979 80.522 113.616 82.8213M111.528 75.9564C108.098 65.6092 103.446 55.5177 97.5406 45.8861M85.3742 28.886C89.2613 29.1704 92.9983 31.1158 95.4439 34.5331C97.8895 37.9503 98.5253 42.1151 97.5406 45.8861M85.3742 28.886C87.5833 31.5502 89.7135 34.3119 91.7591 37.1702C93.8046 40.0284 95.7315 42.9357 97.5406 45.8861" stroke="#472B83" stroke-opacity="0.25" stroke-width="3" stroke-linecap="round" stroke-linejoin="round"/>
</svg>
