<svg width="26" height="24" viewBox="0 0 26 24" fill="none" xmlns="http://www.w3.org/2000/svg">
<path fill-rule="evenodd" clip-rule="evenodd" d="M11.589 3.75C7.70792 3.75 4.56164 6.77208 4.56164 10.5C4.56164 14.2279 7.70792 17.25 11.589 17.25C13.5298 17.25 15.2856 16.4953 16.5582 15.273C17.8307 14.0506 18.6164 12.3642 18.6164 10.5C18.6164 6.77208 15.4702 3.75 11.589 3.75ZM3 10.5C3 5.94365 6.84544 2.25 11.589 2.25C16.3326 2.25 20.1781 5.94365 20.1781 10.5C20.1781 12.5078 19.4305 14.3491 18.1895 15.7793L23.0727 20.4697C23.3776 20.7626 23.3776 21.2374 23.0727 21.5303C22.7677 21.8232 22.2734 21.8232 21.9684 21.5303L17.0853 16.8399C15.5963 18.032 13.6794 18.75 11.589 18.75C6.84544 18.75 3 15.0563 3 10.5Z" fill="white"/>
</svg>
