<svg width="32" height="32" viewBox="0 0 32 32" fill="none" xmlns="http://www.w3.org/2000/svg">
<path fill-rule="evenodd" clip-rule="evenodd" d="M9.99995 8C9.99995 4.68629 12.6862 2 16 2C19.3137 2 22 4.68629 22 8C22 11.3137 19.3137 14 16 14C12.6862 14 9.99995 11.3137 9.99995 8Z" fill="white"/>
<path fill-rule="evenodd" clip-rule="evenodd" d="M5.00161 26.8071C5.10473 20.8208 9.98927 16 16 16C22.0108 16 26.8954 20.821 26.9983 26.8075C27.0051 27.2046 26.7764 27.568 26.4155 27.7336C23.2436 29.1891 19.7153 30 16.0004 30C12.2851 30 8.75653 29.1889 5.58438 27.7332C5.22349 27.5676 4.99477 27.2041 5.00161 26.8071Z" fill="white"/>
</svg>
